<svg width="201" height="20" viewBox="0 0 201 20" fill="none" xmlns="http://www.w3.org/2000/svg">
<path d="M11.4792 15.9374H7.52083M11.4792 15.9374C11.4792 15.3726 11.4792 15.0901 11.5093 14.9027C11.6065 14.2984 11.6236 14.2603 12.009 13.7846C12.1284 13.6372 12.5721 13.24 13.4593 12.4455C14.6735 11.3583 15.4375 9.77873 15.4375 8.02075C15.4375 4.74156 12.7792 2.08325 9.5 2.08325C6.22081 2.08325 3.5625 4.74156 3.5625 8.02075C3.5625 9.77873 4.32654 11.3583 5.54069 12.4455C6.4279 13.24 6.87156 13.6372 6.99107 13.7846C7.37645 14.2603 7.39345 14.2984 7.49069 14.9027C7.52083 15.0901 7.52083 15.3726 7.52083 15.9374M11.4792 15.9374C11.4792 16.6773 11.4792 17.0473 11.32 17.3228C11.2159 17.5033 11.0659 17.6533 10.8854 17.7575C10.6098 17.9166 10.2399 17.9166 9.5 17.9166C8.76011 17.9166 8.39016 17.9166 8.11458 17.7575C7.93408 17.6533 7.78415 17.5033 7.67993 17.3228C7.52083 17.0473 7.52083 16.6773 7.52083 15.9374" stroke="white" stroke-width="1.14"/>
<path d="M10.1222 7.22925L8.42578 9.60425H10.8008L9.10432 11.9792" stroke="white" stroke-width="1.14" stroke-linecap="round" stroke-linejoin="round"/>
<path d="M24.4474 11.2175C24.4474 10.4583 24.5965 9.7849 24.8948 9.19741C25.2021 8.60992 25.6179 8.15801 26.1421 7.84167C26.6663 7.52533 27.2493 7.36716 27.891 7.36716C28.3791 7.36716 28.8445 7.47562 29.2874 7.69254C29.7303 7.90042 30.0828 8.1806 30.3449 8.5331V4.96749H32.27V15H30.3449V13.8883C30.1099 14.2589 29.78 14.5571 29.3552 14.7831C28.9304 15.009 28.4378 15.122 27.8774 15.122C27.2447 15.122 26.6663 14.9593 26.1421 14.6339C25.6179 14.3086 25.2021 13.8521 24.8948 13.2646C24.5965 12.6681 24.4474 11.9857 24.4474 11.2175ZM30.3584 11.2446C30.3584 10.7836 30.2681 10.3905 30.0873 10.0651C29.9065 9.73067 29.6625 9.4776 29.3552 9.30587C29.0479 9.12511 28.718 9.03472 28.3655 9.03472C28.013 9.03472 27.6876 9.12059 27.3894 9.29231C27.0911 9.46404 26.8471 9.71711 26.6573 10.0515C26.4765 10.3769 26.3861 10.7656 26.3861 11.2175C26.3861 11.6694 26.4765 12.0671 26.6573 12.4105C26.8471 12.7449 27.0911 13.0025 27.3894 13.1833C27.6967 13.3641 28.022 13.4545 28.3655 13.4545C28.718 13.4545 29.0479 13.3686 29.3552 13.1969C29.6625 13.0161 29.9065 12.763 30.0873 12.4376C30.2681 12.1032 30.3584 11.7055 30.3584 11.2446ZM37.4589 15.122C36.7359 15.122 36.0851 14.9638 35.5067 14.6475C34.9282 14.3221 34.4718 13.8657 34.1374 13.2782C33.812 12.6907 33.6493 12.0128 33.6493 11.2446C33.6493 10.4763 33.8165 9.79846 34.1509 9.21097C34.4944 8.62348 34.9599 8.17157 35.5473 7.85523C36.1348 7.52985 36.7901 7.36716 37.5132 7.36716C38.2362 7.36716 38.8915 7.52985 39.479 7.85523C40.0665 8.17157 40.5274 8.62348 40.8619 9.21097C41.2053 9.79846 41.377 10.4763 41.377 11.2446C41.377 12.0128 41.2008 12.6907 40.8483 13.2782C40.5048 13.8657 40.0349 14.3221 39.4383 14.6475C38.8508 14.9638 38.191 15.122 37.4589 15.122ZM37.4589 13.468C37.8024 13.468 38.1233 13.3867 38.4215 13.224C38.7288 13.0522 38.9729 12.7992 39.1536 12.4648C39.3344 12.1303 39.4248 11.7236 39.4248 11.2446C39.4248 10.5306 39.235 9.98374 38.8554 9.60414C38.4848 9.21549 38.0284 9.02117 37.4861 9.02117C36.9438 9.02117 36.4873 9.21549 36.1168 9.60414C35.7552 9.98374 35.5745 10.5306 35.5745 11.2446C35.5745 11.9586 35.7507 12.5099 36.1032 12.8986C36.4647 13.2782 36.9166 13.468 37.4589 13.468ZM42.2813 11.2446C42.2813 10.4673 42.4394 9.78942 42.7558 9.21097C43.0721 8.62348 43.5105 8.17157 44.0708 7.85523C44.6312 7.52985 45.2729 7.36716 45.996 7.36716C46.9269 7.36716 47.6952 7.60215 48.3008 8.07214C48.9154 8.5331 49.3266 9.18386 49.5345 10.0244H47.4873C47.3789 9.69904 47.1936 9.44597 46.9315 9.2652C46.6784 9.0754 46.3621 8.98049 45.9824 8.98049C45.4401 8.98049 45.0108 9.17934 44.6945 9.57702C44.3781 9.96567 44.22 10.5215 44.22 11.2446C44.22 11.9586 44.3781 12.5145 44.6945 12.9122C45.0108 13.3008 45.4401 13.4951 45.9824 13.4951C46.7507 13.4951 47.2523 13.1517 47.4873 12.4648H49.5345C49.3266 13.2782 48.9154 13.9244 48.3008 14.4035C47.6862 14.8825 46.9179 15.122 45.996 15.122C45.2729 15.122 44.6312 14.9638 44.0708 14.6475C43.5105 14.3221 43.0721 13.8702 42.7558 13.2918C42.4394 12.7043 42.2813 12.0219 42.2813 11.2446ZM53.7992 15.122C53.1846 15.122 52.6332 15.0136 52.1452 14.7966C51.6571 14.5707 51.2684 14.2679 50.9792 13.8883C50.699 13.5087 50.5454 13.0884 50.5183 12.6274H52.4299C52.466 12.9167 52.6061 13.1562 52.8501 13.346C53.1032 13.5358 53.415 13.6307 53.7856 13.6307C54.1471 13.6307 54.4273 13.5584 54.6262 13.4138C54.834 13.2692 54.938 13.0839 54.938 12.8579C54.938 12.6139 54.8115 12.4331 54.5584 12.3156C54.3143 12.1891 53.9212 12.0535 53.3789 11.9089C52.8185 11.7733 52.3576 11.6332 51.996 11.4886C51.6435 11.344 51.3362 11.1226 51.0741 10.8243C50.821 10.526 50.6945 10.1238 50.6945 9.61769C50.6945 9.20193 50.812 8.82232 51.047 8.47887C51.291 8.13541 51.6345 7.86426 52.0774 7.66542C52.5293 7.46658 53.058 7.36716 53.6636 7.36716C54.5584 7.36716 55.2724 7.59311 55.8057 8.04503C56.3389 8.48791 56.6327 9.08895 56.6869 9.84817H54.8702C54.8431 9.54991 54.7165 9.31491 54.4906 9.14318C54.2737 8.96242 53.9799 8.87203 53.6094 8.87203C53.2659 8.87203 52.9993 8.9353 52.8095 9.06184C52.6287 9.18837 52.5383 9.36462 52.5383 9.59058C52.5383 9.84365 52.6649 10.038 52.9179 10.1735C53.171 10.3001 53.5642 10.4311 54.0974 10.5667C54.6397 10.7023 55.0871 10.8424 55.4396 10.987C55.7921 11.1316 56.0949 11.3576 56.348 11.6649C56.6101 11.9631 56.7456 12.3608 56.7547 12.8579C56.7547 13.2918 56.6327 13.6804 56.3886 14.0239C56.1536 14.3673 55.8102 14.6385 55.3583 14.8373C54.9154 15.0271 54.3957 15.122 53.7992 15.122ZM59.1533 15.0949C58.8098 15.0949 58.5251 14.991 58.2992 14.7831C58.0823 14.5662 57.9738 14.2995 57.9738 13.9832C57.9738 13.6669 58.0823 13.4047 58.2992 13.1969C58.5251 12.9799 58.8098 12.8715 59.1533 12.8715C59.4877 12.8715 59.7634 12.9799 59.9803 13.1969C60.1972 13.4047 60.3057 13.6669 60.3057 13.9832C60.3057 14.2995 60.1972 14.5662 59.9803 14.7831C59.7634 14.991 59.4877 15.0949 59.1533 15.0949ZM63.7325 8.57377C63.9766 8.23031 64.311 7.94561 64.7358 7.71965C65.1696 7.48466 65.6622 7.36716 66.2135 7.36716C66.8553 7.36716 67.4337 7.52533 67.9489 7.84167C68.4731 8.15801 68.8844 8.60992 69.1826 9.19741C69.4899 9.77586 69.6436 10.4492 69.6436 11.2175C69.6436 11.9857 69.4899 12.6681 69.1826 13.2646C68.8844 13.8521 68.4731 14.3086 67.9489 14.6339C67.4337 14.9593 66.8553 15.122 66.2135 15.122C65.6622 15.122 65.1741 15.009 64.7493 14.7831C64.3336 14.5571 63.9946 14.2724 63.7325 13.929V18.5792H61.8345V7.48917H63.7325V8.57377ZM67.7049 11.2175C67.7049 10.7656 67.61 10.3769 67.4202 10.0515C67.2394 9.71711 66.9954 9.46404 66.6881 9.29231C66.3898 9.12059 66.0644 9.03472 65.7119 9.03472C65.3685 9.03472 65.0431 9.12511 64.7358 9.30587C64.4375 9.4776 64.1935 9.73067 64.0037 10.0651C63.8229 10.3995 63.7325 10.7927 63.7325 11.2446C63.7325 11.6965 63.8229 12.0897 64.0037 12.4241C64.1935 12.7585 64.4375 13.0161 64.7358 13.1969C65.0431 13.3686 65.3685 13.4545 65.7119 13.4545C66.0644 13.4545 66.3898 13.3641 66.6881 13.1833C66.9954 13.0025 67.2394 12.7449 67.4202 12.4105C67.61 12.0761 67.7049 11.6784 67.7049 11.2175ZM72.9209 8.65511C73.1649 8.25743 73.4813 7.94561 73.8699 7.71965C74.2676 7.49369 74.7195 7.38071 75.2256 7.38071V9.37366H74.724C74.1275 9.37366 73.6756 9.51375 73.3683 9.79394C73.07 10.0741 72.9209 10.5622 72.9209 11.2581V15H71.0228V7.48917H72.9209V8.65511ZM76.016 11.2175C76.016 10.4583 76.1651 9.7849 76.4634 9.19741C76.7707 8.60992 77.1819 8.15801 77.6971 7.84167C78.2213 7.52533 78.8043 7.36716 79.446 7.36716C80.0064 7.36716 80.4945 7.48014 80.9102 7.70609C81.335 7.93205 81.674 8.21676 81.927 8.56021V7.48917H83.8386V15H81.927V13.9018C81.683 14.2543 81.3441 14.5481 80.9102 14.7831C80.4854 15.009 79.9929 15.122 79.4325 15.122C78.7998 15.122 78.2213 14.9593 77.6971 14.6339C77.1819 14.3086 76.7707 13.8521 76.4634 13.2646C76.1651 12.6681 76.016 11.9857 76.016 11.2175ZM81.927 11.2446C81.927 10.7836 81.8367 10.3905 81.6559 10.0651C81.4751 9.73067 81.2311 9.4776 80.9238 9.30587C80.6165 9.12511 80.2866 9.03472 79.9341 9.03472C79.5816 9.03472 79.2562 9.12059 78.958 9.29231C78.6597 9.46404 78.4157 9.71711 78.2259 10.0515C78.0451 10.3769 77.9547 10.7656 77.9547 11.2175C77.9547 11.6694 78.0451 12.0671 78.2259 12.4105C78.4157 12.7449 78.6597 13.0025 78.958 13.1833C79.2653 13.3641 79.5906 13.4545 79.9341 13.4545C80.2866 13.4545 80.6165 13.3686 80.9238 13.1969C81.2311 13.0161 81.4751 12.763 81.6559 12.4376C81.8367 12.1032 81.927 11.7055 81.927 11.2446ZM95.0199 7.38071C95.9418 7.38071 96.683 7.66542 97.2434 8.23483C97.8128 8.79521 98.0975 9.58154 98.0975 10.5938V15H96.1994V10.8514C96.1994 10.2639 96.0503 9.81654 95.752 9.50923C95.4538 9.19289 95.0471 9.03472 94.5319 9.03472C94.0167 9.03472 93.6054 9.19289 93.2981 9.50923C92.9999 9.81654 92.8507 10.2639 92.8507 10.8514V15H90.9527V10.8514C90.9527 10.2639 90.8036 9.81654 90.5053 9.50923C90.207 9.19289 89.8003 9.03472 89.2851 9.03472C88.7609 9.03472 88.3452 9.19289 88.0379 9.50923C87.7396 9.81654 87.5905 10.2639 87.5905 10.8514V15H85.6924V7.48917H87.5905V8.39752C87.8345 8.08118 88.1463 7.83263 88.5259 7.65186C88.9146 7.4711 89.3394 7.38071 89.8003 7.38071C90.3878 7.38071 90.912 7.50725 91.373 7.76032C91.8339 8.00436 92.191 8.35685 92.444 8.8178C92.6881 8.38397 93.0406 8.03599 93.5015 7.77388C93.9715 7.51177 94.4776 7.38071 95.0199 7.38071ZM103.234 15.122C102.511 15.122 101.86 14.9638 101.281 14.6475C100.703 14.3221 100.247 13.8657 99.9122 13.2782C99.5868 12.6907 99.4241 12.0128 99.4241 11.2446C99.4241 10.4763 99.5913 9.79846 99.9257 9.21097C100.269 8.62348 100.735 8.17157 101.322 7.85523C101.91 7.52985 102.565 7.36716 103.288 7.36716C104.011 7.36716 104.666 7.52985 105.254 7.85523C105.841 8.17157 106.302 8.62348 106.637 9.21097C106.98 9.79846 107.152 10.4763 107.152 11.2446C107.152 12.0128 106.976 12.6907 106.623 13.2782C106.28 13.8657 105.81 14.3221 105.213 14.6475C104.626 14.9638 103.966 15.122 103.234 15.122ZM103.234 13.468C103.577 13.468 103.898 13.3867 104.196 13.224C104.504 13.0522 104.748 12.7992 104.928 12.4648C105.109 12.1303 105.2 11.7236 105.2 11.2446C105.2 10.5306 105.01 9.98374 104.63 9.60414C104.26 9.21549 103.803 9.02117 103.261 9.02117C102.719 9.02117 102.262 9.21549 101.892 9.60414C101.53 9.98374 101.349 10.5306 101.349 11.2446C101.349 11.9586 101.526 12.5099 101.878 12.8986C102.24 13.2782 102.691 13.468 103.234 13.468ZM108.056 11.2175C108.056 10.4583 108.205 9.7849 108.503 9.19741C108.811 8.60992 109.227 8.15801 109.751 7.84167C110.275 7.52533 110.858 7.36716 111.5 7.36716C111.988 7.36716 112.453 7.47562 112.896 7.69254C113.339 7.90042 113.691 8.1806 113.954 8.5331V4.96749H115.879V15H113.954V13.8883C113.719 14.2589 113.389 14.5571 112.964 14.7831C112.539 15.009 112.046 15.122 111.486 15.122C110.853 15.122 110.275 14.9593 109.751 14.6339C109.227 14.3086 108.811 13.8521 108.503 13.2646C108.205 12.6681 108.056 11.9857 108.056 11.2175ZM113.967 11.2446C113.967 10.7836 113.877 10.3905 113.696 10.0651C113.515 9.73067 113.271 9.4776 112.964 9.30587C112.657 9.12511 112.327 9.03472 111.974 9.03472C111.622 9.03472 111.296 9.12059 110.998 9.29231C110.7 9.46404 110.456 9.71711 110.266 10.0515C110.085 10.3769 109.995 10.7656 109.995 11.2175C109.995 11.6694 110.085 12.0671 110.266 12.4105C110.456 12.7449 110.7 13.0025 110.998 13.1833C111.305 13.3641 111.631 13.4545 111.974 13.4545C112.327 13.4545 112.657 13.3686 112.964 13.1969C113.271 13.0161 113.515 12.763 113.696 12.4376C113.877 12.1032 113.967 11.7055 113.967 11.2446ZM120.674 7.36716C121.235 7.36716 121.727 7.48014 122.152 7.70609C122.577 7.92301 122.911 8.20772 123.155 8.56021V7.48917H125.067V15.0542C125.067 15.7502 124.927 16.3693 124.647 16.9116C124.367 17.4629 123.946 17.8968 123.386 18.2131C122.826 18.5385 122.148 18.7012 121.352 18.7012C120.286 18.7012 119.409 18.4526 118.722 17.9555C118.044 17.4584 117.66 16.7805 117.57 15.9219H119.454C119.554 16.2654 119.766 16.5365 120.091 16.7354C120.426 16.9432 120.828 17.0472 121.298 17.0472C121.849 17.0472 122.297 16.88 122.64 16.5455C122.984 16.2202 123.155 15.7231 123.155 15.0542V13.8883C122.911 14.2408 122.572 14.5345 122.139 14.7695C121.714 15.0045 121.226 15.122 120.674 15.122C120.042 15.122 119.463 14.9593 118.939 14.6339C118.415 14.3086 117.999 13.8521 117.692 13.2646C117.394 12.6681 117.244 11.9857 117.244 11.2175C117.244 10.4583 117.394 9.7849 117.692 9.19741C117.999 8.60992 118.41 8.15801 118.926 7.84167C119.45 7.52533 120.033 7.36716 120.674 7.36716ZM123.155 11.2446C123.155 10.7836 123.065 10.3905 122.884 10.0651C122.704 9.73067 122.46 9.4776 122.152 9.30587C121.845 9.12511 121.515 9.03472 121.163 9.03472C120.81 9.03472 120.485 9.12059 120.186 9.29231C119.888 9.46404 119.644 9.71711 119.454 10.0515C119.274 10.3769 119.183 10.7656 119.183 11.2175C119.183 11.6694 119.274 12.0671 119.454 12.4105C119.644 12.7449 119.888 13.0025 120.186 13.1833C120.494 13.3641 120.819 13.4545 121.163 13.4545C121.515 13.4545 121.845 13.3686 122.152 13.1969C122.46 13.0161 122.704 12.763 122.884 12.4376C123.065 12.1032 123.155 11.7055 123.155 11.2446ZM133.903 11.0819C133.903 11.353 133.885 11.5971 133.849 11.814H128.358C128.403 12.3563 128.593 12.7811 128.927 13.0884C129.262 13.3957 129.673 13.5494 130.161 13.5494C130.866 13.5494 131.368 13.2466 131.666 12.641H133.713C133.496 13.3641 133.08 13.9606 132.466 14.4306C131.851 14.8915 131.097 15.122 130.202 15.122C129.479 15.122 128.828 14.9638 128.249 14.6475C127.68 14.3221 127.233 13.8657 126.907 13.2782C126.591 12.6907 126.433 12.0128 126.433 11.2446C126.433 10.4673 126.591 9.7849 126.907 9.19741C127.224 8.60992 127.666 8.15801 128.236 7.84167C128.805 7.52533 129.461 7.36716 130.202 7.36716C130.916 7.36716 131.553 7.52081 132.113 7.82811C132.683 8.13541 133.121 8.57377 133.428 9.14318C133.745 9.70356 133.903 10.3498 133.903 11.0819ZM131.937 10.5396C131.928 10.0515 131.752 9.66288 131.408 9.37366C131.065 9.0754 130.645 8.92626 130.147 8.92626C129.678 8.92626 129.28 9.07088 128.954 9.3601C128.638 9.64029 128.444 10.0335 128.371 10.5396H131.937ZM138.623 15.122C137.9 15.122 137.25 14.9638 136.671 14.6475C136.093 14.3221 135.636 13.8657 135.302 13.2782C134.976 12.6907 134.814 12.0128 134.814 11.2446C134.814 10.4763 134.981 9.79846 135.315 9.21097C135.659 8.62348 136.124 8.17157 136.712 7.85523C137.299 7.52985 137.955 7.36716 138.678 7.36716C139.401 7.36716 140.056 7.52985 140.644 7.85523C141.231 8.17157 141.692 8.62348 142.026 9.21097C142.37 9.79846 142.542 10.4763 142.542 11.2446C142.542 12.0128 142.365 12.6907 142.013 13.2782C141.669 13.8657 141.199 14.3221 140.603 14.6475C140.015 14.9638 139.356 15.122 138.623 15.122ZM138.623 13.468C138.967 13.468 139.288 13.3867 139.586 13.224C139.893 13.0522 140.137 12.7992 140.318 12.4648C140.499 12.1303 140.589 11.7236 140.589 11.2446C140.589 10.5306 140.399 9.98374 140.02 9.60414C139.649 9.21549 139.193 9.02117 138.651 9.02117C138.108 9.02117 137.652 9.21549 137.281 9.60414C136.92 9.98374 136.739 10.5306 136.739 11.2446C136.739 11.9586 136.915 12.5099 137.268 12.8986C137.629 13.2782 138.081 13.468 138.623 13.468ZM145.832 8.65511C146.076 8.25743 146.392 7.94561 146.781 7.71965C147.179 7.49369 147.63 7.38071 148.137 7.38071V9.37366H147.635C147.038 9.37366 146.587 9.51375 146.279 9.79394C145.981 10.0741 145.832 10.5622 145.832 11.2581V15H143.934V7.48917H145.832V8.65511ZM152.357 7.36716C152.917 7.36716 153.41 7.48014 153.835 7.70609C154.26 7.92301 154.594 8.20772 154.838 8.56021V7.48917H156.75V15.0542C156.75 15.7502 156.61 16.3693 156.329 16.9116C156.049 17.4629 155.629 17.8968 155.069 18.2131C154.508 18.5385 153.83 18.7012 153.035 18.7012C151.968 18.7012 151.092 18.4526 150.405 17.9555C149.727 17.4584 149.343 16.7805 149.252 15.9219H151.137C151.236 16.2654 151.449 16.5365 151.774 16.7354C152.108 16.9432 152.511 17.0472 152.981 17.0472C153.532 17.0472 153.979 16.88 154.323 16.5455C154.666 16.2202 154.838 15.7231 154.838 15.0542V13.8883C154.594 14.2408 154.255 14.5345 153.821 14.7695C153.396 15.0045 152.908 15.122 152.357 15.122C151.724 15.122 151.146 14.9593 150.622 14.6339C150.097 14.3086 149.682 13.8521 149.374 13.2646C149.076 12.6681 148.927 11.9857 148.927 11.2175C148.927 10.4583 149.076 9.7849 149.374 9.19741C149.682 8.60992 150.093 8.15801 150.608 7.84167C151.132 7.52533 151.715 7.36716 152.357 7.36716ZM154.838 11.2446C154.838 10.7836 154.748 10.3905 154.567 10.0651C154.386 9.73067 154.142 9.4776 153.835 9.30587C153.527 9.12511 153.198 9.03472 152.845 9.03472C152.493 9.03472 152.167 9.12059 151.869 9.29231C151.571 9.46404 151.327 9.71711 151.137 10.0515C150.956 10.3769 150.866 10.7656 150.866 11.2175C150.866 11.6694 150.956 12.0671 151.137 12.4105C151.327 12.7449 151.571 13.0025 151.869 13.1833C152.176 13.3641 152.502 13.4545 152.845 13.4545C153.198 13.4545 153.527 13.3686 153.835 13.1969C154.142 13.0161 154.386 12.763 154.567 12.4376C154.748 12.1032 154.838 11.7055 154.838 11.2446ZM165.586 11.0819C165.586 11.353 165.567 11.5971 165.531 11.814H160.041C160.086 12.3563 160.276 12.7811 160.61 13.0884C160.944 13.3957 161.356 13.5494 161.844 13.5494C162.549 13.5494 163.05 13.2466 163.349 12.641H165.396C165.179 13.3641 164.763 13.9606 164.148 14.4306C163.534 14.8915 162.779 15.122 161.884 15.122C161.161 15.122 160.51 14.9638 159.932 14.6475C159.363 14.3221 158.915 13.8657 158.59 13.2782C158.274 12.6907 158.115 12.0128 158.115 11.2446C158.115 10.4673 158.274 9.7849 158.59 9.19741C158.906 8.60992 159.349 8.15801 159.918 7.84167C160.488 7.52533 161.143 7.36716 161.884 7.36716C162.598 7.36716 163.236 7.52081 163.796 7.82811C164.365 8.13541 164.804 8.57377 165.111 9.14318C165.427 9.70356 165.586 10.3498 165.586 11.0819ZM163.62 10.5396C163.611 10.0515 163.434 9.66288 163.091 9.37366C162.747 9.0754 162.327 8.92626 161.83 8.92626C161.36 8.92626 160.962 9.07088 160.637 9.3601C160.321 9.64029 160.126 10.0335 160.054 10.5396H163.62ZM167.811 15.0949C167.468 15.0949 167.183 14.991 166.957 14.7831C166.74 14.5662 166.632 14.2995 166.632 13.9832C166.632 13.6669 166.74 13.4047 166.957 13.1969C167.183 12.9799 167.468 12.8715 167.811 12.8715C168.146 12.8715 168.422 12.9799 168.638 13.1969C168.855 13.4047 168.964 13.6669 168.964 13.9832C168.964 14.2995 168.855 14.5662 168.638 14.7831C168.422 14.991 168.146 15.0949 167.811 15.0949ZM170.005 11.2446C170.005 10.4673 170.163 9.78942 170.479 9.21097C170.795 8.62348 171.234 8.17157 171.794 7.85523C172.355 7.52985 172.996 7.36716 173.719 7.36716C174.65 7.36716 175.419 7.60215 176.024 8.07214C176.639 8.5331 177.05 9.18386 177.258 10.0244H175.211C175.102 9.69904 174.917 9.44597 174.655 9.2652C174.402 9.0754 174.085 8.98049 173.706 8.98049C173.163 8.98049 172.734 9.17934 172.418 9.57702C172.101 9.96567 171.943 10.5215 171.943 11.2446C171.943 11.9586 172.101 12.5145 172.418 12.9122C172.734 13.3008 173.163 13.4951 173.706 13.4951C174.474 13.4951 174.976 13.1517 175.211 12.4648H177.258C177.05 13.2782 176.639 13.9244 176.024 14.4035C175.409 14.8825 174.641 15.122 173.719 15.122C172.996 15.122 172.355 14.9638 171.794 14.6475C171.234 14.3221 170.795 13.8702 170.479 13.2918C170.163 12.7043 170.005 12.0219 170.005 11.2446ZM181.983 15.122C181.26 15.122 180.61 14.9638 180.031 14.6475C179.453 14.3221 178.996 13.8657 178.662 13.2782C178.336 12.6907 178.174 12.0128 178.174 11.2446C178.174 10.4763 178.341 9.79846 178.675 9.21097C179.019 8.62348 179.484 8.17157 180.072 7.85523C180.659 7.52985 181.315 7.36716 182.038 7.36716C182.761 7.36716 183.416 7.52985 184.004 7.85523C184.591 8.17157 185.052 8.62348 185.386 9.21097C185.73 9.79846 185.902 10.4763 185.902 11.2446C185.902 12.0128 185.725 12.6907 185.373 13.2782C185.029 13.8657 184.559 14.3221 183.963 14.6475C183.375 14.9638 182.716 15.122 181.983 15.122ZM181.983 13.468C182.327 13.468 182.648 13.3867 182.946 13.224C183.253 13.0522 183.497 12.7992 183.678 12.4648C183.859 12.1303 183.949 11.7236 183.949 11.2446C183.949 10.5306 183.759 9.98374 183.38 9.60414C183.009 9.21549 182.553 9.02117 182.011 9.02117C181.468 9.02117 181.012 9.21549 180.641 9.60414C180.28 9.98374 180.099 10.5306 180.099 11.2446C180.099 11.9586 180.275 12.5099 180.628 12.8986C180.989 13.2782 181.441 13.468 181.983 13.468ZM196.621 7.38071C197.543 7.38071 198.284 7.66542 198.845 8.23483C199.414 8.79521 199.699 9.58154 199.699 10.5938V15H197.801V10.8514C197.801 10.2639 197.652 9.81654 197.353 9.50923C197.055 9.19289 196.648 9.03472 196.133 9.03472C195.618 9.03472 195.207 9.19289 194.9 9.50923C194.601 9.81654 194.452 10.2639 194.452 10.8514V15H192.554V10.8514C192.554 10.2639 192.405 9.81654 192.107 9.50923C191.808 9.19289 191.402 9.03472 190.887 9.03472C190.362 9.03472 189.947 9.19289 189.639 9.50923C189.341 9.81654 189.192 10.2639 189.192 10.8514V15H187.294V7.48917H189.192V8.39752C189.436 8.08118 189.748 7.83263 190.127 7.65186C190.516 7.4711 190.941 7.38071 191.402 7.38071C191.989 7.38071 192.513 7.50725 192.974 7.76032C193.435 8.00436 193.792 8.35685 194.045 8.8178C194.289 8.38397 194.642 8.03599 195.103 7.77388C195.573 7.51177 196.079 7.38071 196.621 7.38071Z" fill="white"/>
</svg>
